<svg width="300" height="300" viewBox="0 0 300 300" fill="none" xmlns="http://www.w3.org/2000/svg">
    <path d="M240 90C260 130 270 190 230 230C190 270 120 260 80 230C40 200 30 120 60 80C90 40 160 20 200 40C220 50 230 70 240 90Z"
          fill="#E8DEF8"/>

    <rect x="75" y="50" width="150" height="180" rx="24" fill="#FDF7FF" stroke="#E8DEF8" stroke-width="2"/>

    <rect x="100" y="90" width="100" height="12" rx="6" fill="#E8DEF8"/>
    <rect x="100" y="115" width="70" height="12" rx="6" fill="#E8DEF8"/>
    <rect x="100" y="140" width="80" height="12" rx="6" fill="#E8DEF8"/>

    <rect x="160" y="175" width="80" height="60" rx="12" fill="#6750A4" opacity="0.2"/>

    <rect x="155" y="170" width="80" height="60" rx="12" fill="#6750A4"/>

    <rect x="150" y="165" width="90" height="18" rx="6" fill="#6750A4" stroke="#FDF7FF" stroke-width="2"/>

    <rect x="185" y="200" width="20" height="6" rx="3" fill="#FDF7FF" opacity="0.8"/>

    <path d="M60 60 L63 68 L71 71 L63 74 L60 82 L57 74 L49 71 L57 68 Z" fill="#6750A4"/>

</svg>